<svg width="121" height="130" viewBox="0 0 121 130" fill="none" xmlns="http://www.w3.org/2000/svg">
<path d="M50.8365 90.4088L27.5 65.3536L35.277 57.0059L50.8365 73.7014L81.9445 40.3044L89.727 48.6581L50.8365 90.4088Z" fill="#F4F2F2"/>
<path fill-rule="evenodd" clip-rule="evenodd" d="M0 64.9404C0 29.0756 27.0875 0 60.5 0C93.9125 0 121 29.0756 121 64.9404C121 100.805 93.9125 129.881 60.5 129.881C27.0875 129.881 0 100.805 0 64.9404ZM60.5 118.073C53.9996 118.073 47.5628 116.699 41.5572 114.029C35.5516 111.359 30.0947 107.445 25.4982 102.511C20.9017 97.5772 17.2556 91.7199 14.768 85.2735C12.2804 78.8271 11 71.9179 11 64.9404C11 57.9628 12.2804 51.0536 14.768 44.6072C17.2556 38.1608 20.9017 32.3035 25.4982 27.3696C30.0947 22.4358 35.5516 18.522 41.5572 15.8519C47.5628 13.1817 53.9996 11.8073 60.5 11.8073C73.6282 11.8073 86.2187 17.4053 95.5018 27.3696C104.785 37.334 110 50.8486 110 64.9404C110 79.0321 104.785 92.5467 95.5018 102.511C86.2187 112.475 73.6282 118.073 60.5 118.073Z" fill="#F4F2F2"/>
</svg>
