<svg width="410" height="6" viewBox="0 0 410 6" fill="none" xmlns="http://www.w3.org/2000/svg">
<path d="M410 3.32812C410 3.68041 409.849 4.19133 409.312 4.44531C408.911 4.63437 408.509 4.55932 408.305 4.50781C408.299 4.50652 408.28 4.50148 408.242 4.50781C408.196 4.51564 408.119 4.54439 408.008 4.60156C407.552 4.83547 407.04 4.84123 406.57 4.61719C406.16 4.42125 405.853 4.08461 405.625 3.75C405.602 3.7162 405.574 3.68848 405.555 3.66406C405.304 3.76046 405.035 3.82575 404.75 3.8125C404.516 3.80119 404.299 3.73928 404.094 3.65625C404.075 3.68755 404.045 3.71818 404.023 3.75781C403.814 4.14035 403.518 4.57449 403.07 4.8125C402.823 4.94378 402.528 5.01329 402.211 4.97656C401.902 4.9402 401.644 4.80811 401.445 4.65625C401.354 4.58602 401.296 4.5739 401.281 4.57031L401.273 4.5625C401.273 4.56253 401.263 4.5663 401.25 4.57031C400.673 4.75229 400.15 4.56189 399.773 4.25781C399.449 3.99519 399.196 3.62598 398.992 3.24219C398.648 3.49338 398.286 3.70226 397.875 3.79688C397.453 3.89343 397.027 3.95502 396.602 3.97656C396.297 3.99193 395.989 4.03724 395.68 4.10938C394.901 4.29131 394.207 3.98748 393.68 3.51562C393.486 3.34237 393.275 3.21191 393.086 3.07031C393.075 3.09222 393.059 3.11631 393.047 3.14062C392.843 3.55972 392.573 4.0004 392.188 4.28125C391.978 4.43315 391.704 4.55836 391.383 4.57812C391.057 4.59732 390.766 4.50166 390.531 4.35938C390.307 4.22352 390.135 4.18837 390 4.19531C389.134 4.23927 388.489 3.68126 388.055 3.10938C388.001 3.03812 387.948 2.99376 387.914 2.96094C387.492 3.09002 387.062 3.15893 386.625 3.14844C386.659 3.14926 386.546 3.12 386.281 3.40625C385.997 3.71309 385.563 4.03159 384.984 4.02344C384.411 4.01479 383.988 3.69028 383.711 3.38281C383.583 3.24119 383.486 3.18123 383.438 3.15625C383.4 3.13716 383.4 3.1419 383.422 3.14062C383.371 3.14465 383.215 3.17918 382.953 3.4375C382.647 3.74043 382.186 4.02685 381.602 3.96875C381.198 3.92819 380.887 3.72174 380.641 3.5C380.215 3.97021 379.652 4.37304 378.93 4.35938C378.912 4.35927 378.79 4.36614 378.547 4.60156C378.37 4.77239 378.122 4.94034 377.805 5.01562C377.467 5.09552 377.14 5.04458 376.859 4.90625C376.37 4.66554 376.061 4.18974 375.859 3.79688C375.729 3.54199 375.612 3.40859 375.547 3.33594C375.208 3.36729 374.87 3.3892 374.531 3.38281C374.526 3.38272 374.502 3.38607 374.445 3.41406C374.384 3.44458 374.289 3.50682 374.164 3.63281C373.666 4.13611 372.981 4.51294 372.172 4.36719C372.042 4.34411 371.895 4.35619 371.703 4.45312C371.322 4.64612 370.885 4.71586 370.445 4.60156C370.032 4.49347 369.7 4.24572 369.438 3.97656C369.273 3.80726 369.106 3.66813 368.953 3.54688C368.926 3.60012 368.897 3.65939 368.867 3.72656C368.759 3.97113 368.631 4.20413 368.484 4.40625C368.343 4.60034 368.137 4.83167 367.844 4.97656C367.511 5.14052 367.122 5.16643 366.758 5.02344C366.552 4.94228 366.39 4.81506 366.258 4.6875C365.959 4.93727 365.539 5.14337 365.016 5.04688C364.418 4.93521 364.036 4.48114 363.812 4.14062L363.422 3.67188C363.069 3.62579 362.727 3.52389 362.391 3.39062C362.349 3.45958 362.3 3.54994 362.25 3.65625C362.051 4.07553 361.771 4.54408 361.344 4.82031C361.103 4.97583 360.795 5.08299 360.445 5.05469C360.172 5.03185 359.944 4.9207 359.758 4.79688C359.502 5.02549 359.2 5.23344 358.828 5.32031C358.4 5.42026 357.981 5.35429 357.609 5.17188C357.028 4.88548 356.538 4.37581 356.125 3.78125C355.983 3.57681 355.846 3.43338 355.734 3.32031C355.711 3.36343 355.682 3.40813 355.656 3.46094C355.545 3.69448 355.411 3.92915 355.25 4.125C355.093 4.31474 354.847 4.53714 354.508 4.64844C354.128 4.77213 353.748 4.71171 353.438 4.53906C353.284 4.45327 353.154 4.34715 353.047 4.23438C352.741 4.4998 352.299 4.72552 351.734 4.57031C351.168 4.4141 350.829 3.93759 350.625 3.57812C350.445 3.76852 350.249 3.9903 350.055 4.25781C349.819 4.58173 349.492 4.92308 349.039 5.08594C348.519 5.2712 348.008 5.16617 347.602 4.89844C347.171 4.61404 346.835 4.15396 346.523 3.63281C346.398 3.82977 346.262 4.01078 346.109 4.16406C345.802 4.47237 345.326 4.76844 344.727 4.69531C344.245 4.63597 343.864 4.37404 343.586 4.09375C343.397 3.90291 343.233 3.67164 343.078 3.42188C342.789 3.78509 342.497 4.11497 342.18 4.375C341.987 4.5319 341.733 4.67244 341.422 4.71875C341.099 4.76677 340.795 4.70302 340.539 4.57031C340.276 4.43344 340.07 4.22154 339.898 4C339.843 4.06534 339.793 4.13742 339.727 4.19531C339.48 4.40942 339.094 4.60495 338.617 4.51562C338.19 4.43492 337.902 4.16831 337.742 3.96875C337.573 3.75762 337.445 3.50154 337.336 3.25C337.302 3.17099 337.257 3.10689 337.227 3.04688C336.989 3.18726 336.755 3.32755 336.516 3.45312C335.918 3.76721 335.258 3.83644 334.609 3.60156C334.574 3.58871 334.557 3.5844 334.547 3.58594C334.532 3.58813 334.482 3.60085 334.398 3.65625C333.979 3.93232 333.454 4.03525 332.93 3.82812C332.696 3.73537 332.498 3.59033 332.328 3.42969C332.168 3.68791 332.003 3.92968 331.805 4.125C331.521 4.40454 331.126 4.661 330.633 4.70312C330.057 4.75152 329.602 4.47205 329.297 4.17188C328.998 3.87737 328.752 3.48506 328.547 3.0625C328.432 2.82693 328.327 2.67335 328.25 2.57031C328.196 2.61766 328.12 2.67839 328.039 2.78125C327.608 3.32781 327.063 3.79984 326.391 3.96875C325.754 4.12752 325.166 3.96317 324.664 3.64062C324.387 3.9588 323.924 4.32438 323.281 4.25C322.654 4.17565 322.252 3.71839 322.023 3.38281C321.878 3.16926 321.759 3.05521 321.688 3C321.664 2.98237 321.647 2.97982 321.641 2.97656C321.341 2.95653 321.042 2.9348 320.742 2.90625C320.675 2.98601 320.568 3.12466 320.445 3.36719C320.33 3.59584 320.173 3.84742 319.961 4.04688C319.739 4.25527 319.372 4.47804 318.898 4.42969C318.453 4.38403 318.144 4.12217 317.969 3.92188C317.938 3.8867 317.919 3.84206 317.891 3.80469C317.783 3.97322 317.676 4.13461 317.555 4.27344C317.296 4.56865 316.935 4.85502 316.469 4.96094C315.669 5.1418 314.977 4.80369 314.461 4.3125C314.121 3.9889 313.777 3.66118 313.438 3.32031C313.102 3.60186 312.769 3.8692 312.43 4.10938C312.037 4.38715 311.527 4.51785 310.992 4.34375C310.524 4.19043 310.183 3.84703 309.945 3.52344C309.828 3.36341 309.731 3.28864 309.68 3.25C309.594 3.275 309.445 3.33617 309.242 3.53125C308.965 3.79733 308.602 4.03017 308.156 4.10156C307.765 4.16385 307.408 4.07423 307.094 3.91406C306.612 4.45078 305.914 4.90466 305.055 4.73438C304.863 4.69648 304.669 4.70445 304.461 4.77344C303.804 4.99001 303.168 4.86522 302.609 4.53125C302.413 4.70985 302.131 4.89859 301.758 4.92969C301.363 4.96247 301.033 4.81246 300.797 4.63281C300.384 4.31794 300.113 3.79787 299.922 3.32812C299.8 3.02813 299.673 2.84695 299.594 2.72656C299.457 2.76964 299.311 2.83201 299.156 2.92188C298.799 3.12941 298.436 3.34611 298.078 3.57031C297.774 3.76116 297.459 4.00714 297.133 4.3125C296.771 4.65118 296.21 4.91192 295.57 4.6875C295.312 4.59642 295.098 4.44058 294.922 4.26562L294.406 3.60938C294.036 3.7743 293.655 3.90149 293.258 3.94531C293.246 3.94958 293.215 3.96187 293.172 3.99219C293.094 4.04768 292.982 4.14972 292.844 4.32812C292.596 4.64815 292.217 5.01145 291.68 5.10938C291.132 5.20886 290.677 4.99215 290.352 4.71875C290.15 4.85681 289.899 4.98823 289.586 4.99219C289.198 4.99659 288.883 4.83566 288.664 4.65625C288.472 4.49906 288.316 4.29221 288.18 4.07031C288.174 4.07832 288.178 4.09366 288.172 4.10156C288.018 4.30449 287.721 4.61615 287.25 4.6875C286.725 4.76668 286.327 4.50274 286.109 4.28125C286.044 4.21464 285.992 4.13717 285.938 4.0625C285.919 4.08376 285.91 4.12021 285.891 4.14062C285.702 4.33393 285.4 4.55878 284.984 4.59375C284.548 4.63019 284.197 4.4391 283.969 4.24219C283.821 4.11455 283.701 3.96377 283.602 3.8125C283.365 4.07203 283.128 4.33841 282.891 4.60156C282.718 4.792 282.447 5.02089 282.062 5.09375C281.64 5.17302 281.27 5.02861 281.008 4.83594C280.768 4.65926 280.594 4.42693 280.469 4.21875C280.338 4.00204 280.221 3.75285 280.117 3.48438C280.036 3.27548 279.965 3.10755 279.898 2.98438H279.891C279.679 3.06478 279.462 3.14119 279.25 3.23438C278.93 3.37494 278.603 3.54613 278.273 3.75C277.897 3.98265 277.442 4.09542 276.961 3.97656C276.514 3.86548 276.166 3.58592 275.906 3.29688C275.859 3.24425 275.818 3.21085 275.789 3.1875C275.483 3.29726 275.176 3.42124 274.867 3.5625C274.668 3.65363 274.408 3.83802 274.102 4.1875C273.843 4.48282 273.489 4.77621 273.023 4.88281C272.576 4.98502 272.165 4.87838 271.82 4.67969C271.528 4.96098 271.119 5.22089 270.594 5.21875C270.056 5.21582 269.635 4.94705 269.344 4.65625C269.005 4.31784 268.671 4.02334 268.344 3.77344C268.139 3.61692 267.934 3.49568 267.742 3.39062C267.71 3.44062 267.664 3.498 267.625 3.57031C267.507 3.78788 267.36 4.01736 267.164 4.20312C266.965 4.39154 266.66 4.58603 266.258 4.60938C265.844 4.63326 265.508 4.46211 265.281 4.27344C265.067 4.09362 264.903 3.86658 264.781 3.65625C264.627 3.39108 264.5 3.23059 264.406 3.14062C264.393 3.12774 264.385 3.11031 264.375 3.10156C264.337 3.12631 264.272 3.17295 264.188 3.26562C263.894 3.58697 263.412 3.93368 262.773 3.85156C262.186 3.77482 261.789 3.36721 261.547 3.03906C261.468 2.93186 261.379 2.87098 261.32 2.8125C261.253 2.92145 261.154 3.06626 261.062 3.27344C260.861 3.72825 260.636 4.14194 260.367 4.46094C260.106 4.77097 259.707 5.10081 259.164 5.16406C258.498 5.24101 258.012 4.85122 257.734 4.52344C257.544 4.29757 257.383 4.01741 257.234 3.71094C257.063 3.87765 256.832 4.05488 256.516 4.125C255.694 4.30689 255.154 3.72131 254.922 3.38281C254.498 3.61975 254.037 3.76324 253.539 3.75781C253.29 3.75511 253.032 3.79355 252.766 3.88281C251.989 4.14247 251.271 3.89752 250.711 3.42969C250.539 3.28528 250.349 3.17077 250.18 3.04688C250.15 3.1125 250.111 3.18295 250.078 3.26562C249.972 3.53419 249.843 3.80671 249.672 4.03125C249.516 4.23576 249.198 4.56948 248.695 4.61719C248.152 4.66729 247.771 4.35805 247.578 4.14062C247.382 3.91997 247.242 3.64591 247.133 3.39062C247.122 3.36501 247.104 3.34362 247.094 3.32031C246.722 3.54056 246.309 3.67987 245.852 3.67969C245.616 3.67923 245.369 3.72975 245.109 3.82812C244.682 3.99065 244.243 4.10234 243.805 4.17188C243.289 4.25337 242.786 4.18892 242.297 4.01562C242.271 4.03646 242.233 4.07496 242.188 4.125C241.861 4.48291 241.276 4.85019 240.562 4.59375C240.014 4.39576 239.681 3.90286 239.477 3.53125C239.36 3.31804 239.234 3.16822 239.141 3.04688C239.114 3.09601 239.084 3.14986 239.055 3.21094C238.941 3.44724 238.793 3.69555 238.602 3.89844C238.412 4.09876 238.09 4.34149 237.641 4.35938C237.177 4.37649 236.832 4.14158 236.625 3.9375C236.583 3.8957 236.546 3.84998 236.508 3.80469C236.359 4.01458 236.191 4.21083 235.984 4.35938C235.78 4.50662 235.519 4.62987 235.211 4.65625C234.897 4.68281 234.607 4.60068 234.367 4.46875C233.918 4.2213 233.533 3.84088 233.172 3.39844C232.762 3.82488 232.241 4.17346 231.594 4.20312C231.57 4.20492 231.429 4.22402 231.172 4.49219C230.698 4.98564 230.074 5.37889 229.32 5.35938C228.609 5.33972 228.011 4.97216 227.539 4.5C227.177 4.13732 226.819 3.74526 226.461 3.32812C226.178 3.51298 225.845 3.66297 225.445 3.64062C224.943 3.61164 224.538 3.35821 224.25 3.07812L224.234 3.0625C223.769 3.31284 223.272 3.46587 222.742 3.46094C222.707 3.46059 222.574 3.47104 222.328 3.69531C221.856 4.12676 221.289 4.44706 220.641 4.50781C220.175 4.55111 219.718 4.49231 219.266 4.36719L219.258 4.38281C219.224 4.41088 219.175 4.45453 219.117 4.52344C218.954 4.718 218.686 4.96604 218.297 5.05469C217.862 5.15363 217.475 5.01273 217.203 4.8125C216.959 4.63166 216.788 4.39044 216.664 4.17969C216.534 3.95778 216.416 3.69852 216.312 3.42188C216.293 3.37051 216.268 3.32544 216.25 3.28125C216.066 3.36494 215.861 3.4297 215.633 3.4375C215.373 3.44615 215.138 3.38811 214.93 3.29688C214.914 3.33375 214.892 3.3715 214.875 3.41406C214.768 3.67914 214.632 3.96143 214.445 4.1875C214.268 4.40158 213.899 4.73446 213.344 4.70312C212.815 4.67329 212.485 4.33136 212.328 4.125C212.312 4.10346 212.297 4.07705 212.281 4.05469C212.146 4.25402 211.948 4.5041 211.641 4.65625C211.264 4.84229 210.84 4.83764 210.469 4.64844C210.157 4.48868 209.946 4.23395 209.812 4.03125C209.493 3.54716 209.27 3.38906 209.18 3.35156C208.842 3.21514 208.499 3.09922 208.164 3C208.002 2.95248 207.851 2.95681 207.68 3.01562C207.642 3.02878 207.424 3.14539 207.094 3.67188C206.887 4.00157 206.376 4.65908 205.531 4.51562C205.155 4.4513 204.881 4.24143 204.703 4.05469C204.523 3.865 204.373 3.63754 204.258 3.41406C204.183 3.26978 204.117 3.16139 204.062 3.08594L204.047 3.07031C203.543 3.15347 203.062 3.05573 202.625 2.82031C202.248 3.3002 201.873 3.7536 201.492 4.17188C201.007 4.7045 200.306 5.14026 199.453 4.96875C198.825 4.84243 198.288 4.47805 197.836 4.01562C197.644 3.81921 197.477 3.71325 197.352 3.64844C197.308 3.69873 197.248 3.76579 197.188 3.85938C196.964 4.20668 196.65 4.5842 196.203 4.78125C195.671 5.01557 195.128 4.92243 194.695 4.63281C194.61 4.57575 194.557 4.56559 194.539 4.5625C194.526 4.56039 194.511 4.55865 194.477 4.57031C193.995 4.7361 193.51 4.66295 193.102 4.42969C192.769 4.23917 192.511 3.94806 192.297 3.64844C191.858 3.94393 191.345 4.09825 190.773 3.99219L190.758 4.00781C190.713 4.05688 190.653 4.13045 190.586 4.23438C190.366 4.57334 189.956 5.07278 189.289 5.13281C188.568 5.19757 188.089 4.71712 187.844 4.38281C187.573 4.01294 187.312 3.7523 187.086 3.5625C186.806 3.82852 186.427 4.08192 185.938 4.10156C185.479 4.1192 185.11 3.91865 184.82 3.6875C184.379 4.08194 183.86 4.38016 183.258 4.44531C183.157 4.45619 182.979 4.51166 182.719 4.74219C182.431 4.99822 182.057 5.21644 181.609 5.26562C181.147 5.31608 180.729 5.1728 180.391 4.94531L180.086 5.10156C179.767 5.23119 179.405 5.26768 179.031 5.16406C178.578 5.0378 178.236 4.73835 177.984 4.4375L177.969 4.42188C177.795 4.49972 177.606 4.56709 177.391 4.57031C177.085 4.57442 176.81 4.48572 176.586 4.35156C176.376 4.22531 176.199 4.05307 176.047 3.86719C175.913 4.07567 175.77 4.26691 175.609 4.42969C175.323 4.71933 174.915 4.99286 174.391 5.01562C173.853 5.03853 173.331 4.92824 172.836 4.70312C172.543 4.56985 172.259 4.47976 171.984 4.42969V4.4375C171.955 4.44955 171.874 4.4849 171.758 4.60156C171.574 4.78623 171.297 4.99138 170.922 5.04688C170.524 5.10549 170.176 4.97692 169.922 4.79688C169.524 4.51518 169.265 4.04734 169.078 3.61719C168.842 3.75768 168.552 3.85047 168.211 3.82031C167.566 3.76293 167.151 3.29627 166.922 2.96094C166.835 2.83459 166.748 2.75771 166.688 2.69531C166.623 2.78362 166.529 2.90052 166.438 3.07812C166.232 3.47685 165.94 3.92258 165.508 4.17969C165.269 4.32108 164.975 4.41586 164.648 4.39062C164.327 4.36535 164.057 4.23207 163.852 4.07812C163.497 3.81124 163.146 3.50116 162.805 3.15625C162.36 3.58233 161.795 3.91099 161.109 3.88281C160.618 3.86245 160.172 3.69214 159.781 3.42969C159.576 3.79219 159.25 4.25679 158.719 4.4375C157.98 4.68652 157.401 4.271 157.094 3.91406C157.035 3.84501 156.981 3.7944 156.945 3.76562C156.936 3.75827 156.921 3.76254 156.914 3.75781C156.436 3.87494 155.946 3.8963 155.461 3.80469C155.137 3.74356 154.815 3.66815 154.492 3.59375C154.486 3.60002 154.483 3.60972 154.477 3.61719C154.428 3.67184 154.366 3.74959 154.297 3.85938C153.903 4.48255 153.252 5.21547 152.289 5.15625C152.059 5.14204 151.82 5.17335 151.57 5.25781C150.714 5.54735 149.963 5.18053 149.438 4.64844C149.157 4.36371 148.956 4.27334 148.844 4.25C148.481 4.17425 148.119 4.08297 147.758 3.97656H147.75C147.716 4.00366 147.668 4.04915 147.609 4.11719C147.362 4.40428 147.048 4.67192 146.656 4.82031C146.235 4.97914 145.788 4.97239 145.375 4.80469C144.649 4.50882 144.138 3.77638 143.758 3.03125C143.726 2.96912 143.684 2.92184 143.656 2.875C143.501 2.98606 143.331 3.12137 143.156 3.29688C142.857 3.59669 142.414 3.88363 141.844 3.85156C141.561 3.83566 141.318 3.74227 141.109 3.61719C140.916 4.02475 140.701 4.39921 140.438 4.6875C140.157 4.99339 139.728 5.30942 139.156 5.3125C138.616 5.31457 138.192 5.04112 137.898 4.75C137.608 4.46153 137.363 4.08281 137.156 3.67188C136.997 3.35533 136.86 3.16417 136.766 3.0625C136.738 3.03349 136.714 3.02404 136.703 3.01562C136.449 2.97145 136.198 2.90333 135.945 2.83594C135.935 2.85339 135.917 2.87006 135.906 2.89062C135.84 3.01264 135.76 3.17017 135.68 3.375C135.573 3.64665 135.442 3.92827 135.266 4.15625C135.104 4.3642 134.759 4.71435 134.219 4.72656C133.671 4.7373 133.318 4.39034 133.148 4.17969C132.974 3.96287 132.839 3.7021 132.734 3.44531C132.601 3.62448 132.458 3.83316 132.312 4.07812C132.096 4.44297 131.822 4.80385 131.469 5.04688C131.079 5.31474 130.579 5.44233 130.055 5.28125C129.469 5.10067 129.017 4.6589 128.648 4.15625C128.461 4.3541 128.244 4.54565 127.969 4.65625C127.443 4.86607 126.92 4.76316 126.5 4.48438C126.19 4.27819 125.888 4.12956 125.602 4.02344C125.181 3.86745 124.826 3.58475 124.492 3.25781C124.407 3.39837 124.327 3.54268 124.219 3.66406C124.056 3.84559 123.822 4.04753 123.5 4.14844C122.918 4.3293 122.454 4.10115 122.141 3.82812C121.754 4.29183 121.281 4.68641 120.695 4.83594C120.274 4.94331 119.848 5.01509 119.422 5.04688C118.785 5.09325 118.325 4.72001 118.047 4.39844C117.763 4.06968 117.528 3.63428 117.328 3.15625C117.32 3.13638 117.305 3.12008 117.297 3.10156C116.992 3.30987 116.675 3.48556 116.328 3.58594C115.523 3.81887 114.808 3.50043 114.273 3.00781C113.986 2.74265 113.741 2.61148 113.555 2.55469C113.404 2.5094 113.258 2.5172 113.094 2.57812C112.568 2.7722 112.02 2.80891 111.477 2.67969C111.471 2.68378 111.46 2.68203 111.453 2.6875C111.417 2.71665 111.372 2.76676 111.312 2.83594C110.982 3.22373 110.643 3.68981 110.297 4.23438C110.085 4.56761 109.619 5.1474 108.852 5.10938C108.12 5.07173 107.695 4.48728 107.492 4.14844C107.421 4.03017 107.356 3.94449 107.305 3.88281C107.286 3.86074 107.263 3.84984 107.25 3.83594C106.782 3.89034 106.342 3.79981 105.945 3.59375C105.941 3.60172 105.934 3.60879 105.93 3.61719C105.809 3.83668 105.638 4.09 105.398 4.28125C105.135 4.49178 104.741 4.65759 104.281 4.55469C103.874 4.46346 103.604 4.19793 103.445 4C103.289 3.80463 103.16 3.57648 103.055 3.34375C102.814 3.55241 102.574 3.74732 102.328 3.92188C101.915 4.2149 101.381 4.33918 100.836 4.125C100.374 3.94232 100.048 3.56784 99.8203 3.22656C99.7534 3.12617 99.6918 3.06109 99.6484 3.01562H99.6406C99.4405 3.06335 99.2415 3.10183 99.0391 3.10938L98.2188 3.03125C98.2201 3.03117 98.2138 3.02784 98.2031 3.03125C98.1782 3.03961 98.1121 3.07273 98.0078 3.16406C97.6947 3.43862 97.3673 3.7816 97.0312 4.20312C96.5839 4.76431 95.9193 5.3023 95.0469 5.21094C94.8076 5.18554 94.5627 5.19818 94.3125 5.26562C93.8087 5.40198 93.2941 5.43161 92.7812 5.34375C92.3108 5.26316 91.8508 5.10978 91.4062 4.89062C90.9789 4.67986 90.5581 4.41555 90.1484 4.10938C90.0633 4.04637 90.0192 4.03975 90.0156 4.03906H90C89.2434 4.32108 88.5176 4.12291 87.9375 3.67188C87.6699 3.46344 87.4302 3.34974 87.2266 3.28906C87.1963 3.307 87.1386 3.34428 87.0625 3.42188C86.7889 3.70032 86.4206 3.95924 85.9531 4.03125C85.6035 4.08475 85.2899 3.99626 85.0078 3.86719C85.0028 3.87475 84.9974 3.88247 84.9922 3.89062C84.7693 4.23842 84.4811 4.59438 84.0938 4.8125C83.6538 5.05983 83.1359 5.103 82.6484 4.89062C82.0452 4.62747 81.5485 4.12443 81.1328 3.53906C80.9929 3.34191 80.8881 3.25456 80.8359 3.21875C80.4796 3.23692 80.122 3.24412 79.7656 3.25C79.6322 3.25239 79.45 3.29793 79.2109 3.46094C78.8827 3.68494 78.5487 3.94418 78.2109 4.24219C77.8929 4.52283 77.4507 4.75774 76.9141 4.71094C76.3969 4.66489 75.9953 4.37925 75.7188 4.08594C75.6902 4.05571 75.6678 4.03208 75.6484 4.01562C75.1346 4.22844 74.5926 4.29898 74.0391 4.17969C74.0032 4.17199 73.9187 4.15792 73.7344 4.28906C73.2371 4.64524 72.6678 4.87016 72.0469 4.86719C71.7046 4.86518 71.358 4.87538 71.0156 4.89844C70.1967 4.95304 69.5533 4.48761 69.0938 3.95312C68.9169 3.74734 68.7313 3.55066 68.5547 3.35156C68.457 3.60977 68.3621 3.85379 68.2422 4.0625C68.1193 4.27621 67.9501 4.51918 67.7109 4.70312C67.4486 4.90469 67.0656 5.0578 66.625 4.96875C66.2277 4.88796 65.9551 4.63999 65.7891 4.44531C65.6593 4.29333 65.5632 4.2196 65.5078 4.1875C65.4602 4.16036 65.4568 4.17276 65.4844 4.17188C65.2362 4.17984 64.9733 4.23287 64.7031 4.33594C64.0814 4.57181 63.4795 4.4708 62.9453 4.17969C62.7028 4.50863 62.2845 4.93915 61.6562 4.97656C60.993 5.01456 60.5274 4.60105 60.2656 4.27344C60.073 4.03232 59.9225 3.92367 59.8281 3.86719C59.7848 3.91193 59.7265 3.97377 59.6641 4.0625C59.5243 4.26084 59.3145 4.509 59 4.65625C58.6349 4.82708 58.2271 4.82141 57.8672 4.64844C57.5956 4.51701 57.4031 4.30701 57.2656 4.125C57.2524 4.14877 57.2479 4.18009 57.2344 4.20312C57.1104 4.41349 56.9406 4.64836 56.7031 4.82812C56.4429 5.02477 56.0712 5.17466 55.6406 5.09375C55.2468 5.01927 54.9672 4.77907 54.7969 4.58594C54.7481 4.53104 54.7072 4.49838 54.6797 4.47656C54.1835 4.6222 53.7078 4.51483 53.3281 4.25C53.0971 4.08862 52.9081 3.87132 52.7422 3.64062C52.474 3.90858 52.0919 4.15958 51.5625 4.08594C51.1726 4.03116 50.8854 3.81402 50.7031 3.625C50.5207 3.43563 50.381 3.20686 50.2656 2.98438C50.2602 2.97395 50.2475 2.96309 50.2422 2.95312C50.1329 3.12802 50.0003 3.36125 49.8672 3.67188C49.6666 4.13967 49.4398 4.56597 49.1641 4.89062C48.8957 5.20639 48.462 5.55834 47.8672 5.57031C46.9721 5.58688 46.3528 4.93143 45.9531 4.32812C45.4906 4.62179 44.9551 4.78697 44.3594 4.67188C43.9342 4.58963 43.5109 4.47082 43.0938 4.3125C42.8001 4.20099 42.5167 4.05642 42.2266 3.91406C42.1983 3.95793 42.1589 4.00824 42.125 4.07031C41.9135 4.45742 41.654 4.82797 41.3281 5.09375C40.9801 5.37656 40.5031 5.57917 39.9531 5.46875C39.42 5.36149 38.9661 5.06536 38.5547 4.70312C38.3064 4.9503 37.9964 5.18744 37.5859 5.26562C37.0656 5.36458 36.6081 5.19304 36.2578 4.92969C35.947 5.12959 35.5845 5.26976 35.1719 5.25781C34.7408 5.24494 34.3618 5.07794 34.0547 4.85156C33.548 4.47716 33.1311 3.89535 32.7578 3.21875C32.445 3.49309 32.1207 3.73453 31.7656 3.89844C31.0918 4.20824 30.4155 4.1142 29.8281 3.75781C29.563 4.02062 29.2249 4.26596 28.7969 4.35156C28.4435 4.42218 28.1191 4.34224 27.8203 4.21875C27.8071 4.23653 27.7964 4.25893 27.7812 4.28125C27.5543 4.61592 27.0618 5.17182 26.2891 5.08594C25.5945 5.00841 25.1949 4.44546 24.9922 4.10156C24.8264 3.82028 24.6727 3.62086 24.5469 3.47656L24.5078 3.4375C24.2932 3.7913 23.9365 4.25314 23.375 4.41406C22.6874 4.61068 22.1396 4.25705 21.8203 3.91406L21.8125 3.90625C21.5179 4.05796 21.1914 4.1589 20.8281 4.13281C20.5611 4.11357 20.3202 4.0336 20.1016 3.92188C19.8921 4.26975 19.5082 4.78076 18.8672 4.89062C18.1196 5.01818 17.6072 4.53365 17.3516 4.19531L17.3359 4.17969C16.9586 4.34442 16.5335 4.38355 16.1094 4.20312C15.665 4.01285 15.3441 3.646 15.1172 3.30469C14.9915 3.11539 14.8937 3.02478 14.8438 2.98438C14.4266 3.02256 14.0094 3.01092 13.5938 2.94531C13.5816 2.94304 13.4953 2.93107 13.2891 3.10156C12.9646 3.36973 12.5238 3.56961 12.0078 3.52344C11.5128 3.47812 11.1247 3.21918 10.8438 2.9375C10.617 2.70946 10.4597 2.65137 10.3828 2.63281C10.3361 2.66334 10.2495 2.73018 10.1328 2.875C9.71181 3.39909 9.23337 3.83216 8.69531 4.10156C8.30622 4.29623 7.86508 4.36155 7.42188 4.23438C7.17515 4.16339 6.96335 4.03428 6.77344 3.89062C6.57225 4.1825 6.33279 4.4652 6.02344 4.65625C5.60642 4.91322 5.09837 4.99562 4.59375 4.80469C4.12676 4.62746 3.72348 4.31245 3.35156 3.9375C3.11938 4.19096 2.82591 4.44716 2.42188 4.53906C1.83656 4.67206 1.33765 4.43557 0.992188 4.13281C0.901673 4.05382 0.691905 3.94328 0.195312 3.99219L0.148438 4H0V2H0.101562V2.00781C0.794429 1.95463 1.46758 2.06542 2.03906 2.44531C2.28967 2.14035 2.66636 1.80017 3.21094 1.75C3.85185 1.69193 4.32043 2.05289 4.60156 2.375C4.78781 2.58863 4.9514 2.72976 5.08594 2.82031C5.11793 2.778 5.16299 2.72883 5.20312 2.66406C5.41985 2.31484 5.77459 1.864 6.33594 1.71094C6.84856 1.5728 7.28341 1.73542 7.60156 1.96875L7.88281 2.21094L7.90625 2.24219C8.08532 2.12829 8.314 1.94402 8.57031 1.625C9.01881 1.06667 9.68118 0.539425 10.5469 0.625L11.0391 0.726562C11.4684 0.867308 11.8432 1.13248 12.1719 1.44531C12.6644 1.08595 13.2507 0.873096 13.9062 0.976562C14.1832 1.02019 14.4589 1.02395 14.7344 0.992188C15.7036 0.880101 16.3762 1.5855 16.7812 2.19531C16.7885 2.20626 16.7979 2.2167 16.8047 2.22656C17.1437 2.08755 17.5292 2.05493 17.9219 2.1875C18.1897 2.27832 18.4044 2.4422 18.5938 2.61719C18.7952 2.34172 19.0442 2.06215 19.3906 1.90625C19.8219 1.71267 20.252 1.74229 20.6172 1.90625L20.9609 2.11719V2.125C21.324 1.90865 21.7554 1.79452 22.2188 1.89844C22.4858 1.95859 22.714 2.08773 22.9141 2.23438C23.1206 1.92889 23.381 1.62416 23.7344 1.4375C24.1092 1.23969 24.5131 1.2004 24.8906 1.3125L25.2578 1.47656L25.6719 1.78125C25.9741 2.04237 26.2246 2.38275 26.4688 2.75C26.6486 2.56308 26.8528 2.38259 27.1094 2.27344C27.5682 2.07885 28.0337 2.13115 28.4375 2.33594C28.71 2.05704 29.0736 1.79393 29.5391 1.71875C29.7841 1.67971 30.0196 1.69943 30.2344 1.75781L30.8281 2.03906L30.9062 2.09375C30.9063 2.09376 30.9135 2.08562 30.9297 2.07812C31.1482 1.97718 31.4143 1.79172 31.7188 1.46875C31.883 1.29424 32.1132 1.10587 32.4141 1.00781C32.7389 0.902307 33.0784 0.921164 33.3828 1.04688C33.91 1.26476 34.2357 1.75957 34.4375 2.14062C34.7703 2.76826 35.0467 3.09162 35.2344 3.23438C35.5496 3.03055 35.9231 2.88829 36.3438 2.90625C36.6868 2.92109 36.9791 3.05803 37.2422 3.21875C37.5103 2.92612 37.8986 2.62702 38.4219 2.58594C38.9962 2.54093 39.4461 2.82514 39.75 3.125C39.9149 3.28764 40.0553 3.38089 40.1641 3.4375L40.1797 3.42188C40.2352 3.34827 40.3014 3.24421 40.375 3.10938C40.5862 2.72293 40.8674 2.32375 41.2578 2.07031C41.4668 1.93483 41.7214 1.82983 42.0156 1.8125C42.1654 1.80386 42.3103 1.81922 42.4453 1.85156L42.8203 1.99219L43.8047 2.44531C44.1202 2.56505 44.4347 2.65154 44.7422 2.71094C44.7522 2.71272 44.7638 2.71142 44.7891 2.70312C44.8235 2.69162 44.8941 2.65984 45 2.57031C45.3804 2.24749 45.9364 2.04333 46.5391 2.25781C47.0351 2.43593 47.3713 2.8404 47.5938 3.1875C47.6469 3.27032 47.7071 3.32838 47.75 3.38281C47.8233 3.26073 47.9349 3.10754 48.0312 2.88281C48.2306 2.41759 48.4492 2.00788 48.6875 1.67188C48.9184 1.34639 49.2153 1.02061 49.6094 0.828125C49.8547 0.708919 50.144 0.643879 50.4453 0.679688C50.7394 0.715023 50.9892 0.840871 51.1875 0.984375C51.4342 1.16342 51.6203 1.41322 51.7891 1.67188C52.0428 1.42788 52.3947 1.21188 52.8672 1.24219C53.2549 1.26797 53.5504 1.45704 53.75 1.64062C53.9467 1.82203 54.0989 2.04459 54.2188 2.25781C54.2867 2.37887 54.3512 2.46353 54.3984 2.52344C54.7172 2.46083 55.0383 2.46058 55.3516 2.57812C55.478 2.62561 55.5845 2.70443 55.6953 2.77344C55.6994 2.76278 55.7068 2.75321 55.7109 2.74219C55.8162 2.46375 55.9518 2.19046 56.1172 1.96094C56.2637 1.75772 56.566 1.40952 57.0703 1.34375C57.6317 1.27156 58.0304 1.59094 58.2266 1.8125C58.3642 1.96875 58.4716 2.15247 58.5625 2.33594C58.9759 1.97184 59.5076 1.7077 60.1719 1.85938C60.7273 1.9864 61.1827 2.32889 61.5703 2.74219C61.7842 2.50765 62.0409 2.2778 62.3828 2.16406C62.9205 1.98642 63.4341 2.12651 63.8281 2.40625C63.9064 2.46157 63.9515 2.4669 63.9609 2.46875C63.9623 2.4686 63.9754 2.46731 63.9922 2.46094C64.4541 2.28472 64.9302 2.18785 65.4141 2.17188C65.9158 2.15578 66.3444 2.34498 66.7109 2.60938C66.8965 2.10649 67.157 1.54659 67.5703 1.21094C67.8146 1.01307 68.1803 0.845222 68.6172 0.90625C68.8181 0.934979 68.989 1.00548 69.1328 1.09375L69.4844 1.38281L70.6094 2.64844C70.7398 2.80022 70.8343 2.87183 70.8828 2.89844C70.9193 2.91799 70.9144 2.90413 70.8828 2.90625C71.2733 2.87996 71.664 2.86493 72.0547 2.86719C72.166 2.86784 72.335 2.8326 72.5703 2.66406C73.1152 2.27479 73.7646 2.0765 74.4609 2.22656C74.598 2.25606 74.7446 2.24967 74.9297 2.16406L75.5391 2C75.7517 1.98189 75.9706 1.99774 76.1875 2.0625C76.5365 2.16687 76.8157 2.38089 77.0547 2.60938C77.3966 2.31695 77.7368 2.04276 78.0859 1.80469C78.5795 1.46832 79.135 1.25989 79.7344 1.25C80.0885 1.24414 80.4427 1.22977 80.7969 1.21094L81.4219 1.28906C82.0045 1.47021 82.4497 1.93044 82.7656 2.375C82.9494 2.634 83.1097 2.80055 83.2344 2.90625C83.2548 2.87807 83.2811 2.84922 83.3047 2.8125C83.5283 2.46369 83.8534 2.08493 84.3125 1.89062C84.7956 1.68636 85.2682 1.76129 85.6641 1.98438C86.0431 1.60833 86.5357 1.31738 87.1016 1.28125L87.7109 1.34375L88.4609 1.64062C88.7039 1.76773 88.9392 1.91861 89.1641 2.09375C89.2082 2.12807 89.2432 2.14514 89.2656 2.15625C89.2826 2.16459 89.2928 2.1708 89.2969 2.17188C90.0404 1.89473 90.7665 2.07054 91.3516 2.50781C91.6733 2.74825 91.9848 2.94346 92.2891 3.09375C92.5774 3.23587 92.8547 3.32989 93.1172 3.375C93.3376 3.41276 93.5595 3.39806 93.7891 3.33594C94.2542 3.21018 94.7276 3.17461 95.2031 3.21875C95.2437 3.19535 95.3362 3.12703 95.4688 2.96094C95.8648 2.46403 96.2684 2.02354 96.6875 1.65625C97.2178 1.19166 97.9091 0.905658 98.6797 1.08594C98.8701 1.13008 99.0577 1.12383 99.2578 1.0625L99.6172 0.992188C99.9728 0.965674 100.314 1.05877 100.609 1.23438C100.952 1.43891 101.219 1.75202 101.438 2.07031C101.667 1.89008 101.912 1.69997 102.148 1.46875C102.332 1.28911 102.604 1.09835 102.961 1.03906C103.34 0.976522 103.684 1.08069 103.945 1.25C104.237 1.43893 104.446 1.72858 104.617 2.02344C104.762 1.86274 104.928 1.71599 105.125 1.60938C105.369 1.47757 105.66 1.39761 105.977 1.42969C106.131 1.44535 106.27 1.49278 106.398 1.54688L106.75 1.74219L107.039 1.85938C107.559 1.74833 108.03 1.90863 108.391 2.17188C108.592 2.31904 108.759 2.50926 108.914 2.71094C109.204 2.28465 109.49 1.88955 109.789 1.53906C110.149 1.11747 110.653 0.733202 111.266 0.671875L111.914 0.726562L112.148 0.757812C112.23 0.754062 112.317 0.736303 112.406 0.703125C112.973 0.493524 113.561 0.471606 114.141 0.648438C114.686 0.814922 115.181 1.1297 115.625 1.53906C115.707 1.6149 115.765 1.64527 115.789 1.65625C115.967 1.60102 116.2 1.4802 116.477 1.22656L116.836 0.96875C116.98 0.89599 117.148 0.844977 117.336 0.828125C117.725 0.79338 118.057 0.932681 118.297 1.10938C118.712 1.4169 118.98 1.92488 119.172 2.38281C119.305 2.70024 119.426 2.89879 119.508 3.01562C119.738 2.98795 119.971 2.95786 120.203 2.89844C120.237 2.88973 120.43 2.80543 120.742 2.375C120.983 2.04395 121.413 1.60326 122.062 1.57812C122.45 1.56341 122.761 1.70743 123.008 1.89062C123.213 1.5541 123.512 1.17572 123.977 1.01562C124.555 0.816653 125.027 1.0269 125.352 1.29688L125.625 1.57031L126.023 1.98438C126.136 2.07491 126.229 2.12309 126.297 2.14844C126.645 2.27762 126.979 2.45643 127.312 2.65625L127.32 2.64844C127.548 2.31383 128.024 1.78195 128.766 1.82812C129.463 1.8732 129.881 2.41152 130.094 2.75C130.239 2.98174 130.374 3.13345 130.477 3.23438C130.511 3.18706 130.552 3.1319 130.594 3.0625C130.991 2.3947 131.415 1.8263 131.883 1.40625L132.258 1.15625C132.409 1.08435 132.584 1.03247 132.781 1.02344C133.179 1.0058 133.501 1.16928 133.727 1.35156C133.905 1.49569 134.05 1.68112 134.18 1.88281C134.293 1.68031 134.415 1.49251 134.555 1.33594C134.868 0.984716 135.434 0.603797 136.148 0.828125C136.47 0.929489 136.792 1.00286 137.109 1.05469C137.591 1.13317 137.965 1.41426 138.234 1.70312C138.505 1.99464 138.739 2.3647 138.945 2.77344C139.006 2.89297 139.075 2.98261 139.125 3.0625C139.183 2.96409 139.273 2.85025 139.344 2.69531C139.535 2.27891 139.83 1.7493 140.328 1.48438C140.628 1.3251 140.995 1.26828 141.359 1.375C141.6 1.44593 141.779 1.59188 141.93 1.72656C142.302 1.37879 142.689 1.08259 143.109 0.875L143.5 0.742188C143.641 0.715285 143.792 0.708269 143.945 0.726562C144.242 0.762335 144.489 0.886267 144.688 1.03125C145.059 1.30326 145.332 1.71198 145.539 2.11719C145.701 2.43411 145.843 2.65723 145.961 2.79688C145.987 2.82827 146.011 2.85442 146.031 2.875C146.049 2.8571 146.072 2.83804 146.094 2.8125C146.519 2.31834 147.144 1.87654 147.906 1.96094L148.242 2.03125L149.258 2.28906C149.878 2.41924 150.408 2.78445 150.859 3.24219C150.925 3.30822 150.975 3.33611 151 3.35156C151.425 3.21598 151.857 3.15812 152.297 3.17188C152.352 3.12951 152.456 3.01957 152.602 2.78906C152.943 2.24762 153.544 1.55807 154.398 1.5625L154.781 1.60938L155.836 1.83594C156.05 1.87623 156.262 1.866 156.484 1.80469L157.133 1.75C157.541 1.78963 157.902 1.96901 158.203 2.21094C158.405 1.88339 158.673 1.53223 159.07 1.34375C159.343 1.2148 159.66 1.16534 159.984 1.23438C160.138 1.26721 160.276 1.32278 160.398 1.39062L160.719 1.625L161.023 1.83594C161.103 1.87365 161.162 1.88145 161.195 1.88281C161.232 1.87122 161.335 1.82175 161.508 1.63281C161.786 1.3272 162.215 1.01142 162.781 1C163.354 0.98895 163.791 1.29008 164.078 1.59375C164.275 1.80163 164.481 1.97368 164.672 2.14062C164.878 1.74505 165.123 1.37919 165.414 1.10156C165.716 0.814446 166.147 0.558912 166.688 0.578125L167.289 0.703125C167.733 0.877054 168.083 1.21355 168.367 1.57031C168.485 1.4754 168.624 1.38729 168.789 1.32812C169.179 1.18884 169.57 1.24809 169.891 1.42969C170.173 1.58979 170.374 1.82285 170.508 2.02344C170.648 2.2333 170.769 2.4773 170.875 2.73438C170.879 2.7445 170.887 2.75586 170.891 2.76562C171.151 2.60505 171.435 2.48342 171.75 2.44531L172.328 2.46094L173 2.625C173.224 2.69581 173.445 2.7832 173.664 2.88281C173.854 2.96912 174.027 3.0067 174.188 3.01562C174.269 2.93139 174.399 2.76261 174.555 2.45312C174.67 2.22538 174.819 1.99187 175.008 1.79688C175.197 1.60252 175.502 1.37639 175.922 1.34375C176.361 1.31066 176.712 1.50551 176.938 1.70312C177.151 1.89145 177.311 2.12592 177.43 2.34375C177.456 2.39099 177.478 2.43313 177.5 2.46875C177.801 2.36499 178.133 2.33225 178.477 2.42969C178.925 2.55816 179.265 2.85629 179.516 3.15625V3.16406C179.787 3.02609 180.083 2.92491 180.414 2.92969C180.784 2.93518 181.109 3.06801 181.398 3.24219C181.866 2.82875 182.413 2.52165 183.039 2.45312C183.113 2.44511 183.288 2.39883 183.555 2.14062L184.086 1.75781C184.292 1.65677 184.527 1.58854 184.789 1.58594C185.229 1.5823 185.577 1.78482 185.859 2.00781C186.119 1.77049 186.441 1.55408 186.852 1.49219C187.102 1.45443 187.338 1.47558 187.555 1.53906L188.141 1.82812L188.82 2.4375C188.937 2.55937 189.037 2.69997 189.148 2.83594C189.326 2.61308 189.523 2.4028 189.766 2.25C190.15 2.00944 190.622 1.90316 191.109 2.03906C191.119 2.03617 191.177 2.01524 191.281 1.92188L191.578 1.70312C191.907 1.50841 192.322 1.41164 192.781 1.54688C193.3 1.69982 193.654 2.09785 193.883 2.4375C193.945 2.52952 193.991 2.59837 194.031 2.64062C194.545 2.51602 195.032 2.5839 195.484 2.80469C195.491 2.79456 195.501 2.78464 195.508 2.77344C195.905 2.15713 196.643 1.36259 197.703 1.64062C198.3 1.79748 198.819 2.15992 199.266 2.61719C199.511 2.86779 199.693 2.95805 199.805 2.99219C199.838 2.97285 199.909 2.92909 200.008 2.82031C200.357 2.43768 200.71 2.01984 201.062 1.57031C201.307 1.259 201.65 0.94421 202.109 0.804688C202.495 0.687958 202.869 0.722684 203.195 0.859375L203.508 1.03125L203.758 1.10156C204.335 0.92416 204.861 1.11792 205.234 1.42188C205.451 1.5986 205.63 1.82597 205.789 2.07031C206.127 1.65054 206.53 1.29599 207.023 1.125C207.584 0.930988 208.165 0.91722 208.734 1.08594C209.132 1.2036 209.528 1.341 209.922 1.5C210.319 1.66011 210.659 1.93631 210.961 2.26562C211.043 2.09969 211.136 1.93816 211.25 1.79688C211.422 1.5849 211.782 1.23747 212.336 1.25781C212.871 1.2789 213.209 1.6287 213.367 1.83594C213.382 1.85596 213.392 1.88551 213.406 1.90625C213.541 1.6973 213.701 1.50628 213.891 1.35938C214.125 1.17868 214.455 1.02538 214.852 1.05469C215.151 1.07742 215.383 1.21385 215.57 1.35156C215.76 1.19402 216.016 1.03359 216.352 1.00781C216.774 0.976395 217.115 1.15209 217.344 1.34375C217.741 1.67712 217.992 2.21939 218.18 2.71875C218.527 2.48301 218.931 2.31775 219.398 2.36719L219.742 2.4375L220.102 2.51562C220.22 2.52838 220.337 2.52626 220.453 2.51562C220.539 2.50762 220.715 2.45795 220.977 2.21875C221.462 1.77533 222.061 1.45461 222.758 1.46094C222.917 1.46254 223.109 1.41791 223.344 1.28125L223.938 1.05469C224.145 1.01456 224.368 1.01097 224.594 1.05469C224.975 1.1293 225.282 1.33594 225.539 1.5625C225.86 1.33069 226.274 1.16488 226.758 1.24219C227.273 1.32465 227.654 1.64739 227.914 1.95312C228.264 2.36471 228.616 2.74019 228.961 3.08594C229.218 3.34304 229.352 3.35854 229.375 3.35938C229.377 3.35942 229.382 3.36149 229.391 3.35938C229.4 3.35714 229.418 3.34991 229.445 3.33594C229.504 3.30594 229.6 3.24081 229.727 3.10938C230.193 2.62374 230.791 2.236 231.508 2.20312C231.518 2.19854 231.533 2.1861 231.555 2.17188C231.623 2.12744 231.73 2.03851 231.867 1.86719C232.128 1.53962 232.589 1.12265 233.25 1.15625C233.887 1.18961 234.312 1.6231 234.555 1.95312C234.713 2.16862 234.855 2.33692 234.984 2.46094C235.003 2.42668 235.034 2.39272 235.055 2.35156C235.17 2.123 235.324 1.88486 235.523 1.6875C235.727 1.48647 236.064 1.25247 236.516 1.25781C236.96 1.26433 237.287 1.49621 237.484 1.69531C237.512 1.7234 237.537 1.75937 237.562 1.78906C237.705 1.57095 237.866 1.37165 238.055 1.21094C238.345 0.963617 238.731 0.779216 239.164 0.804688L239.609 0.90625L240.109 1.17969C240.526 1.48463 240.851 1.9361 241.125 2.40625C241.287 2.28611 241.464 2.1805 241.664 2.10938C241.872 2.03599 242.086 1.99561 242.297 2L242.914 2.125L243.219 2.20312C243.313 2.21391 243.403 2.21707 243.492 2.20312C243.787 2.15643 244.085 2.06906 244.391 1.95312C244.863 1.77335 245.355 1.67877 245.852 1.67969C245.902 1.67978 246.043 1.66253 246.289 1.44531L246.656 1.20312C246.8 1.13429 246.964 1.08459 247.148 1.07031C247.527 1.04113 247.849 1.172 248.086 1.34375C248.264 1.47398 248.409 1.65217 248.539 1.83594C248.672 1.60175 248.828 1.38984 249.008 1.21875C249.194 1.04181 249.469 0.860854 249.82 0.804688C250.005 0.775487 250.181 0.781772 250.344 0.820312L250.781 1.00781L251.992 1.89844C252.067 1.96057 252.114 1.98487 252.133 1.99219C252.599 1.83597 253.078 1.75254 253.562 1.75781C253.679 1.75874 253.845 1.72456 254.078 1.5625L254.406 1.38281C254.755 1.23712 255.157 1.21022 255.562 1.36719C255.799 1.45889 256.001 1.5968 256.172 1.75781C256.26 1.63558 256.367 1.51651 256.492 1.41406C256.767 1.18954 257.19 1.0207 257.672 1.15625C258.079 1.27149 258.339 1.55698 258.484 1.75781C258.643 1.97592 258.768 2.23546 258.875 2.5C258.924 2.62135 258.996 2.71481 259.039 2.80469C259.092 2.70559 259.173 2.59997 259.234 2.46094C259.436 2.00598 259.673 1.58904 259.961 1.27344C260.249 0.958895 260.709 0.621036 261.32 0.664062L261.891 0.796875C262.338 0.972363 262.697 1.30538 262.992 1.66406C263.313 1.38558 263.69 1.15331 264.133 1.09375L264.742 1.11719L265.312 1.33594C265.656 1.53221 265.934 1.82844 266.172 2.14844C266.33 1.93148 266.509 1.73109 266.727 1.57812C267.046 1.35347 267.432 1.23514 267.836 1.28906L268.25 1.39844L268.914 1.74219C269.132 1.87233 269.345 2.01942 269.555 2.17969C269.914 2.45404 270.259 2.77684 270.609 3.11719C270.863 2.90189 271.167 2.70703 271.547 2.64844C271.944 2.58755 272.298 2.70082 272.609 2.86719C273.033 2.38476 273.501 1.98532 274.031 1.74219C274.424 1.56214 274.822 1.40409 275.219 1.26562C276.124 0.949823 276.894 1.39866 277.398 1.96094V1.96875C277.747 1.76152 278.09 1.56239 278.445 1.40625C278.836 1.23487 279.232 1.0807 279.625 0.945312L280.141 0.867188C280.621 0.887976 281.003 1.17069 281.242 1.4375C281.529 1.75809 281.748 2.1994 281.938 2.67188C282.129 2.46132 282.324 2.25514 282.516 2.04688L282.805 1.78125C283.142 1.54019 283.607 1.38529 284.141 1.57812C284.442 1.68725 284.673 1.89217 284.859 2.10938C284.916 2.03739 284.971 1.9625 285.039 1.89844C285.261 1.69004 285.628 1.46721 286.102 1.51562C286.545 1.56129 286.848 1.82347 287.023 2.02344C287.064 1.95986 287.102 1.89393 287.148 1.83594C287.317 1.62665 287.661 1.29126 288.195 1.28906C288.733 1.28792 289.081 1.62606 289.25 1.83594C289.431 2.06089 289.573 2.33596 289.68 2.60156C289.706 2.66558 289.734 2.72153 289.758 2.77344C289.964 2.69104 290.195 2.64536 290.445 2.65625C290.805 2.67233 291.097 2.82456 291.352 3C291.774 2.48543 292.327 2.03214 293.039 1.95312C293.262 1.92858 293.506 1.85525 293.773 1.71094C294.257 1.4494 294.802 1.45472 295.281 1.71875C295.64 1.9164 295.9 2.23666 296.109 2.55469C296.407 2.30125 296.706 2.06947 297.016 1.875C297.392 1.63917 297.772 1.41429 298.148 1.19531C298.614 0.924646 299.107 0.74475 299.625 0.679688C300.291 0.596253 300.781 0.976842 301.062 1.30469C301.348 1.63839 301.575 2.09041 301.773 2.57812C301.79 2.61818 301.813 2.65258 301.828 2.6875C301.994 2.60716 302.169 2.53454 302.367 2.50781C302.601 2.47639 302.824 2.49204 303.031 2.54688L303.602 2.80469L303.836 2.875C304.342 2.70754 304.861 2.67255 305.383 2.76562C305.407 2.75427 305.482 2.711 305.602 2.57812C305.862 2.28776 306.218 2.00598 306.672 1.89844C307.109 1.79549 307.518 1.88753 307.867 2.07812C308.334 1.63161 308.9 1.29348 309.562 1.23438L310.195 1.28906C310.758 1.44497 311.189 1.8691 311.508 2.28906C311.767 2.09648 312.035 1.89745 312.297 1.67188C312.615 1.39777 313.055 1.17187 313.578 1.21094C314.083 1.24969 314.476 1.52026 314.758 1.80469C315.118 2.16809 315.477 2.52505 315.836 2.86719C315.912 2.93986 315.973 2.97311 316.008 2.99219C316.019 2.9813 316.033 2.96936 316.047 2.95312C316.15 2.83573 316.291 2.62903 316.453 2.29688C316.567 2.06281 316.717 1.81281 316.922 1.60938C317.131 1.40115 317.489 1.15629 317.969 1.1875C318.427 1.2186 318.742 1.48566 318.922 1.6875C318.964 1.73499 318.993 1.79234 319.031 1.84375C319.149 1.67713 319.274 1.52267 319.414 1.39062C319.728 1.09646 320.185 0.833691 320.75 0.890625L321.812 0.984375C322.541 1.03208 323.083 1.50097 323.484 2.01562C323.7 1.82311 323.958 1.64358 324.281 1.57031C324.69 1.47843 325.063 1.56224 325.375 1.72656L325.664 1.91406L325.859 2.02344C325.879 2.02849 325.889 2.02784 325.906 2.02344C325.968 2.00789 326.16 1.92126 326.461 1.53906C326.902 0.978945 327.544 0.451263 328.383 0.476562L328.766 0.539062C329.123 0.641724 329.412 0.856514 329.625 1.07812C329.91 1.37498 330.146 1.76507 330.352 2.1875C330.414 2.31667 330.489 2.40982 330.539 2.49219C330.6 2.404 330.688 2.30217 330.766 2.15625C330.882 1.93725 331.027 1.71647 331.203 1.53125C331.378 1.34857 331.64 1.14645 331.992 1.07031C332.807 0.896286 333.337 1.48248 333.57 1.82031L333.578 1.83594C334.105 1.5729 334.692 1.50255 335.289 1.71875C335.373 1.74931 335.451 1.75804 335.586 1.6875C335.928 1.50781 336.272 1.30397 336.617 1.08594L337.031 0.90625C337.183 0.865748 337.348 0.849692 337.523 0.867188C337.865 0.901962 338.144 1.05182 338.344 1.21875C338.578 1.41408 338.756 1.6812 338.914 1.96094L338.93 1.94531C339.129 1.75123 339.443 1.53724 339.867 1.52344C340.301 1.50975 340.637 1.7103 340.852 1.90625C341.033 2.07262 341.162 2.2811 341.273 2.47656C341.447 2.28836 341.636 2.06078 341.828 1.78125C342.061 1.44325 342.594 0.851118 343.414 1.03125C343.768 1.10929 344.03 1.31624 344.203 1.5C344.378 1.68565 344.517 1.90579 344.633 2.125C344.712 2.27494 344.796 2.38479 344.859 2.47656C344.908 2.39321 344.986 2.30044 345.047 2.17188C345.159 1.93302 345.302 1.6816 345.492 1.47656C345.681 1.27381 346.007 1.02222 346.469 1.00781C346.938 0.993296 347.282 1.23249 347.484 1.4375C347.684 1.64043 347.839 1.89036 347.953 2.125C348.167 2.56712 348.359 2.84406 348.5 3.01562C348.886 2.4949 349.285 2.04294 349.711 1.6875L350.039 1.46875C350.166 1.40539 350.311 1.36119 350.469 1.33594C350.793 1.28431 351.101 1.34385 351.359 1.47656C351.724 1.66427 351.966 1.99804 352.164 2.3125C352.42 2.11517 352.749 1.95763 353.164 1.98438C353.507 2.00657 353.779 2.15327 354 2.32812C354.181 1.99932 354.39 1.67905 354.672 1.45312C354.864 1.29908 355.118 1.16488 355.422 1.11719C355.578 1.0929 355.73 1.09323 355.875 1.11719L356.289 1.25L356.711 1.50781C357.112 1.79871 357.464 2.1955 357.773 2.64062C358.046 3.03197 358.269 3.23048 358.422 3.32812C358.433 3.31877 358.448 3.3097 358.461 3.29688C358.748 3.02128 359.135 2.77087 359.625 2.73438C359.911 2.71339 360.167 2.78338 360.398 2.88281C360.412 2.85568 360.43 2.82831 360.445 2.79688C360.649 2.36836 360.912 1.93107 361.273 1.64062C361.466 1.48631 361.718 1.35165 362.023 1.30469C362.182 1.28026 362.337 1.27916 362.484 1.30469L362.898 1.44531L363.297 1.60938C363.428 1.65064 363.556 1.67921 363.68 1.69531C364.405 1.79021 364.932 2.29962 365.328 2.84375C365.594 2.64006 365.934 2.47471 366.359 2.5C366.656 2.51769 366.908 2.61958 367.117 2.75781C367.306 2.36183 367.54 1.9717 367.859 1.70312C368.054 1.54026 368.314 1.38762 368.641 1.34375C368.981 1.29897 369.294 1.3856 369.547 1.53125C370.009 1.79828 370.452 2.15171 370.867 2.57812C370.885 2.59623 370.9 2.61292 370.914 2.625C371.419 2.39376 371.958 2.3006 372.516 2.39844C372.544 2.38647 372.625 2.34541 372.742 2.22656C373.219 1.74536 373.832 1.36889 374.57 1.38281C374.89 1.38878 375.21 1.37319 375.531 1.33594L375.938 1.34375C376.318 1.40013 376.636 1.59355 376.875 1.8125C377.162 2.07551 377.387 2.42978 377.586 2.80469C377.984 2.52872 378.447 2.34955 378.969 2.35938C378.924 2.35858 378.92 2.37442 378.969 2.34375C379.026 2.30759 379.13 2.22043 379.266 2.04688C379.52 1.72376 379.943 1.33209 380.555 1.30469C381.088 1.28139 381.489 1.55221 381.766 1.82812C382.192 1.46409 382.691 1.19204 383.273 1.14844C383.981 1.09654 384.558 1.43944 385.008 1.875C385.45 1.45774 386.002 1.13306 386.672 1.14844C386.911 1.15419 387.162 1.11412 387.422 1.02344L387.758 0.945312C388.094 0.899924 388.428 0.961008 388.734 1.10938C389.112 1.29208 389.413 1.58785 389.648 1.89844C389.786 2.07904 389.887 2.16307 389.938 2.19531C389.975 2.21888 389.956 2.20017 389.898 2.20312C390.337 2.18057 390.755 2.26856 391.148 2.4375C391.177 2.38725 391.217 2.3335 391.25 2.26562C391.453 1.84678 391.73 1.4046 392.125 1.125C392.341 0.972762 392.618 0.845865 392.945 0.835938C393.111 0.831013 393.264 0.862364 393.406 0.90625L393.797 1.08594L394.414 1.52344C394.616 1.67939 394.817 1.84584 395.016 2.02344C395.118 2.11511 395.185 2.14703 395.211 2.15625L395.219 2.16406C395.642 2.06513 396.072 2.00595 396.5 1.98438C396.807 1.96889 397.118 1.92282 397.43 1.85156C397.573 1.81803 397.785 1.71509 398.062 1.45312L398.383 1.21094C398.506 1.13911 398.647 1.08241 398.805 1.04688C399.14 0.971854 399.465 1.0269 399.742 1.16406C400.227 1.40451 400.54 1.87375 400.742 2.26562C400.816 2.40922 400.875 2.51887 400.93 2.59375L400.938 2.60938C401.41 2.52903 401.855 2.61156 402.258 2.82031C402.262 2.81302 402.269 2.80453 402.273 2.79688C402.484 2.4123 402.773 1.99691 403.188 1.75C403.413 1.61589 403.693 1.52472 404 1.53125C404.151 1.53483 404.291 1.56662 404.422 1.60938L404.789 1.78125L404.844 1.8125C404.85 1.80999 404.862 1.80375 404.875 1.79688L405.219 1.65625C405.577 1.55443 405.959 1.57528 406.32 1.74219C406.739 1.9352 407.045 2.28226 407.273 2.61719C407.298 2.65271 407.324 2.68539 407.344 2.71094C407.468 2.65985 407.596 2.61861 407.727 2.58594L407.547 2H409V2.96875L409.859 2.71094L409.953 3.03125L410 3.17969V3.32812Z" fill="white"/>
</svg>
