<svg width="151" height="75" viewBox="0 0 151 75" fill="none" xmlns="http://www.w3.org/2000/svg">
<path d="M141.376 49.3632C142.726 49.3632 143.767 49.5119 144.499 49.8093C145.231 50.0838 145.861 50.3813 146.387 50.7015C146.661 50.8617 146.879 50.9875 147.039 51.079C147.222 51.1477 147.393 51.182 147.554 51.182C147.782 51.182 147.942 51.0562 148.034 50.8045C148.148 50.5528 148.24 50.1753 148.309 49.672H149.098C149.075 50.1067 149.041 50.6329 148.995 51.2506C148.972 51.8455 148.949 52.6348 148.926 53.6186C148.926 54.6023 148.926 55.895 148.926 57.4965H148.137C148.045 56.3068 147.771 55.1514 147.313 54.0304C146.856 52.9093 146.204 51.9942 145.357 51.285C144.534 50.5528 143.515 50.1868 142.303 50.1868C141.205 50.1868 140.301 50.4956 139.592 51.1134C138.883 51.7311 138.528 52.589 138.528 53.6872C138.528 54.6023 138.757 55.3916 139.214 56.0551C139.672 56.6957 140.335 57.3249 141.205 57.9426C142.097 58.5603 143.172 59.3039 144.431 60.1733C145.529 60.8825 146.513 61.5917 147.382 62.301C148.251 63.0102 148.949 63.8109 149.475 64.7032C150.002 65.5955 150.265 66.6593 150.265 67.8947C150.265 69.4047 149.864 70.6516 149.064 71.6354C148.286 72.6192 147.256 73.3627 145.975 73.866C144.694 74.3465 143.287 74.5867 141.754 74.5867C140.335 74.5867 139.203 74.4494 138.356 74.1749C137.51 73.9004 136.801 73.6144 136.229 73.317C135.725 72.9967 135.336 72.8365 135.062 72.8365C134.833 72.8365 134.661 72.9623 134.547 73.214C134.456 73.4657 134.376 73.8432 134.307 74.3465H133.518C133.563 73.7974 133.586 73.1568 133.586 72.4247C133.609 71.6926 133.621 70.7431 133.621 69.5763C133.643 68.3866 133.655 66.8881 133.655 65.0807H134.444C134.536 66.5907 134.787 68.0091 135.199 69.3361C135.634 70.6402 136.286 71.6926 137.155 72.4933C138.048 73.2941 139.226 73.6945 140.69 73.6945C141.491 73.6945 142.2 73.5572 142.818 73.2826C143.458 72.9852 143.973 72.5505 144.362 71.9786C144.751 71.4066 144.945 70.6974 144.945 69.8509C144.945 68.89 144.717 68.0549 144.259 67.3457C143.824 66.6364 143.218 65.973 142.44 65.3552C141.685 64.7375 140.804 64.1084 139.798 63.4678C138.722 62.7585 137.716 62.0493 136.778 61.3401C135.84 60.6308 135.085 59.8186 134.513 58.9035C133.964 57.9884 133.689 56.9016 133.689 55.6433C133.689 54.202 134.044 53.0237 134.753 52.1086C135.485 51.1706 136.435 50.4842 137.601 50.0495C138.791 49.5919 140.049 49.3632 141.376 49.3632Z" fill="#E9762B"/>
<path d="M132.798 49.8092C132.706 50.976 132.638 52.0971 132.592 53.1723C132.569 54.2476 132.558 55.0713 132.558 55.6432C132.558 56.1465 132.569 56.627 132.592 57.0846C132.615 57.5421 132.638 57.9311 132.661 58.2514H131.871C131.505 56.3296 131.036 54.8082 130.464 53.6871C129.915 52.5661 129.252 51.7768 128.474 51.3192C127.696 50.8387 126.781 50.5985 125.728 50.5985H124.939V70.194C124.939 71.1091 125.031 71.7954 125.214 72.253C125.42 72.7106 125.786 73.0194 126.312 73.1796C126.838 73.3169 127.604 73.3969 128.611 73.4198V74.1062C127.902 74.0833 126.952 74.0604 125.763 74.0375C124.596 74.0147 123.372 74.0032 122.091 74.0032C120.832 74.0032 119.643 74.0147 118.522 74.0375C117.401 74.0604 116.497 74.0833 115.811 74.1062V73.4198C116.84 73.3969 117.618 73.3169 118.144 73.1796C118.67 73.0194 119.025 72.7106 119.208 72.253C119.391 71.7954 119.483 71.1091 119.483 70.194V50.5985H118.728C117.675 50.5985 116.76 50.8387 115.982 51.3192C115.204 51.7768 114.541 52.5661 113.992 53.6871C113.443 54.7853 112.962 56.3067 112.55 58.2514H111.761C111.807 57.9311 111.83 57.5421 111.83 57.0846C111.853 56.627 111.864 56.1465 111.864 55.6432C111.864 55.0713 111.841 54.2476 111.795 53.1723C111.772 52.0971 111.715 50.976 111.624 49.8092C112.676 49.8321 113.82 49.855 115.056 49.8778C116.314 49.9007 117.572 49.9122 118.831 49.9122C120.089 49.9122 121.221 49.9122 122.228 49.9122C123.257 49.9122 124.39 49.9122 125.625 49.9122C126.884 49.9122 128.142 49.9007 129.4 49.8778C130.659 49.855 131.791 49.8321 132.798 49.8092Z" fill="#E9762B"/>
<path d="M110.601 49.8092C110.51 50.8159 110.441 51.7882 110.396 52.7262C110.373 53.6642 110.361 54.3849 110.361 54.8882C110.361 55.3458 110.373 55.7805 110.396 56.1923C110.418 56.6041 110.441 56.9473 110.464 57.2218H109.675C109.446 55.5517 109.091 54.2362 108.611 53.2753C108.131 52.2915 107.501 51.6052 106.724 51.2162C105.969 50.8044 105.076 50.5985 104.047 50.5985H102.64C101.976 50.5985 101.473 50.6557 101.13 50.7701C100.787 50.8845 100.558 51.1133 100.443 51.4565C100.329 51.7996 100.272 52.3258 100.272 53.0351V70.8803C100.272 71.5895 100.329 72.1157 100.443 72.4589C100.558 72.8021 100.787 73.0309 101.13 73.1453C101.473 73.2597 101.976 73.3169 102.64 73.3169H104.321C105.351 73.3169 106.255 73.0995 107.032 72.6648C107.833 72.2073 108.508 71.4408 109.057 70.3655C109.629 69.2902 110.064 67.8375 110.361 66.0072H111.151C111.082 66.7393 111.048 67.7002 111.048 68.8899C111.048 69.4161 111.059 70.1596 111.082 71.1205C111.105 72.0814 111.173 73.0766 111.288 74.1062C110.121 74.0604 108.805 74.0375 107.341 74.0375C105.877 74.0147 104.573 74.0032 103.429 74.0032C102.857 74.0032 102.125 74.0032 101.233 74.0032C100.34 74.0032 99.3796 74.0147 98.35 74.0375C97.3205 74.0375 96.2795 74.049 95.2271 74.0719C94.1747 74.0719 93.1795 74.0833 92.2415 74.1062V73.4198C92.9736 73.3741 93.5227 73.2825 93.8887 73.1453C94.2548 73.008 94.495 72.7335 94.6094 72.3217C94.7467 71.9098 94.8153 71.2921 94.8153 70.4685V53.4469C94.8153 52.6004 94.7467 51.9827 94.6094 51.5937C94.495 51.1819 94.2433 50.9074 93.8544 50.7701C93.4883 50.6099 92.9507 50.5184 92.2415 50.4956V49.8092C93.1795 49.8321 94.1747 49.855 95.2271 49.8778C96.2795 49.8778 97.3205 49.8893 98.35 49.9122C99.3796 49.9122 100.34 49.9122 101.233 49.9122C102.125 49.9122 102.857 49.9122 103.429 49.9122C104.481 49.9122 105.671 49.9122 106.998 49.9122C108.348 49.8893 109.549 49.855 110.601 49.8092ZM105.248 61.5459C105.248 61.5459 105.248 61.6603 105.248 61.889C105.248 62.1178 105.248 62.2322 105.248 62.2322H99.2423C99.2423 62.2322 99.2423 62.1178 99.2423 61.889C99.2423 61.6603 99.2423 61.5459 99.2423 61.5459H105.248ZM106.243 57.0159C106.152 58.32 106.106 59.3152 106.106 60.0016C106.129 60.6879 106.14 61.3171 106.14 61.889C106.14 62.461 106.152 63.0902 106.174 63.7765C106.197 64.4629 106.255 65.4581 106.346 66.7622H105.557C105.442 65.9614 105.225 65.2179 104.905 64.5315C104.607 63.8452 104.173 63.2961 103.601 62.8843C103.029 62.4496 102.285 62.2322 101.37 62.2322V61.5459C102.056 61.5459 102.64 61.4086 103.12 61.1341C103.601 60.8366 103.99 60.4591 104.287 60.0016C104.607 59.5211 104.859 59.0178 105.042 58.4916C105.225 57.9654 105.362 57.4735 105.454 57.0159H106.243Z" fill="#E9762B"/>
<path d="M84.1314 49.8092V50.4956C83.3535 50.5184 82.7587 50.6099 82.3469 50.7701C81.9579 50.9074 81.6948 51.1819 81.5576 51.5937C81.4203 51.9827 81.3516 52.6004 81.3516 53.4469V70.8803C81.3516 71.5895 81.3974 72.1157 81.4889 72.4589C81.6033 72.8021 81.8092 73.0309 82.1066 73.1453C82.4269 73.2597 82.8959 73.3169 83.5137 73.3169H85.1952C85.9731 73.3169 86.7052 73.1338 87.3916 72.7678C88.0779 72.4017 88.6956 71.887 89.2447 71.2235C89.7938 70.5371 90.2514 69.7249 90.6174 68.7869C90.9835 67.8489 91.258 66.8079 91.4411 65.664H92.2304C92.1617 66.4419 92.1274 67.4485 92.1274 68.684C92.1274 69.2102 92.1389 69.9766 92.1617 70.9833C92.1846 71.9899 92.2533 73.0309 92.3676 74.1062C91.2008 74.0604 89.8853 74.0375 88.4211 74.0375C86.9569 74.0147 85.6528 74.0032 84.5089 74.0032C83.9369 74.0032 83.2048 74.0032 82.3125 74.0032C81.4203 74.0032 80.4594 74.0147 79.4299 74.0375C78.4003 74.0375 77.3593 74.049 76.3069 74.0719C75.2545 74.0719 74.2593 74.0833 73.3213 74.1062V73.4198C74.0534 73.3741 74.6025 73.2825 74.9685 73.1453C75.3346 73.008 75.5748 72.7335 75.6892 72.3217C75.8265 71.9098 75.8951 71.2921 75.8951 70.4685V53.4469C75.8951 52.6004 75.8265 51.9827 75.6892 51.5937C75.5748 51.1819 75.3232 50.9074 74.9342 50.7701C74.5682 50.6099 74.0305 50.5184 73.3213 50.4956V49.8092C73.8933 49.8321 74.6597 49.855 75.6206 49.8778C76.6044 49.9007 77.6453 49.9122 78.7435 49.9122C79.7502 49.9122 80.7339 49.9007 81.6948 49.8778C82.6786 49.855 83.4908 49.8321 84.1314 49.8092Z" fill="#E9762B"/>
<path d="M65.211 49.8092V50.4956C64.4331 50.5184 63.8383 50.6099 63.4264 50.7701C63.0375 50.9074 62.7744 51.1819 62.6371 51.5937C62.4999 51.9827 62.4312 52.6004 62.4312 53.4469V70.8803C62.4312 71.5895 62.477 72.1157 62.5685 72.4589C62.6829 72.8021 62.8888 73.0309 63.1862 73.1453C63.5065 73.2597 63.9755 73.3169 64.5933 73.3169H66.2748C67.0527 73.3169 67.7848 73.1338 68.4712 72.7678C69.1575 72.4017 69.7752 71.887 70.3243 71.2235C70.8734 70.5371 71.331 69.7249 71.697 68.7869C72.0631 67.8489 72.3376 66.8079 72.5207 65.664H73.31C73.2413 66.4419 73.207 67.4485 73.207 68.684C73.207 69.2102 73.2185 69.9766 73.2413 70.9833C73.2642 71.9899 73.3328 73.0309 73.4472 74.1062C72.2804 74.0604 70.9649 74.0375 69.5007 74.0375C68.0365 74.0147 66.7324 74.0032 65.5885 74.0032C65.0165 74.0032 64.2844 74.0032 63.3921 74.0032C62.4999 74.0032 61.539 74.0147 60.5094 74.0375C59.4799 74.0375 58.4389 74.049 57.3865 74.0719C56.3341 74.0719 55.3389 74.0833 54.4009 74.1062V73.4198C55.133 73.3741 55.6821 73.2825 56.0481 73.1453C56.4142 73.008 56.6544 72.7335 56.7688 72.3217C56.9061 71.9098 56.9747 71.2921 56.9747 70.4685V53.4469C56.9747 52.6004 56.9061 51.9827 56.7688 51.5937C56.6544 51.1819 56.4027 50.9074 56.0138 50.7701C55.6478 50.6099 55.1101 50.5184 54.4009 50.4956V49.8092C54.9728 49.8321 55.7393 49.855 56.7002 49.8778C57.6839 49.9007 58.7249 49.9122 59.8231 49.9122C60.8297 49.9122 61.8135 49.9007 62.7744 49.8778C63.7582 49.855 64.5704 49.8321 65.211 49.8092Z" fill="#E9762B"/>
<path d="M45.6569 49.1062L54.042 71.2235C54.3623 72.0471 54.7169 72.6191 55.1059 72.9394C55.5177 73.2368 55.8837 73.397 56.204 73.4199V74.1062C55.5177 74.0605 54.7055 74.0376 53.7675 74.0376C52.8523 74.0147 51.9257 74.0033 50.9877 74.0033C49.9353 74.0033 48.9401 74.0147 48.0021 74.0376C47.0641 74.0376 46.3205 74.0605 45.7714 74.1062V73.4199C46.9382 73.3741 47.6703 73.1796 47.9678 72.8364C48.2881 72.4704 48.2194 71.704 47.7618 70.5372L41.9278 54.5794L42.5456 53.6871L37.3293 67.277C36.8259 68.5353 36.5171 69.5648 36.4027 70.3656C36.3112 71.1663 36.3684 71.784 36.5743 72.2187C36.803 72.6534 37.1577 72.9623 37.6381 73.1453C38.1414 73.3055 38.7363 73.397 39.4226 73.4199V74.1062C38.6676 74.0605 37.8433 74.1062 37.1569 74.1062C36.4706 74.0833 35.8662 74.1062 35.1569 74.1062C34.6536 74.1062 34.1145 74.0833 33.6569 74.1062C33.2222 74.1062 32.9023 74.0605 32.5591 74.1062V73.4199C33.0395 73.3283 33.5314 73.0195 34.0347 72.4933C34.5381 71.9671 35.03 71.0748 35.5104 69.8165L43.3349 49.7406C43.7009 49.7635 44.0899 49.7749 44.5017 49.7749C44.9364 49.7749 45.2909 49.1291 45.6569 49.1062ZM48.105 64.2227V64.909H37.8783L38.2215 64.2227H48.105Z" fill="#E9762B"/>
<path d="M45.6567 49.1062V49.8104C45.032 49.9982 44.3788 50.409 43.6973 51.0428C43.0158 51.6531 42.4194 52.6391 41.9083 54.0006L34.9651 74.1062C34.7379 74.0827 33.9123 74.1062 33.6567 74.1062C33.4012 74.1062 32.9123 74.1062 32.6567 74.1062C32.4012 74.1062 32.4123 74.1062 32.1567 74.1062C31.9012 74.1062 31.6567 74.0827 31.4296 74.1062L22.4843 51.7118C22.2003 50.9841 21.8454 50.4912 21.4194 50.233C21.0218 49.9747 20.5959 49.8339 20.1415 49.8104V49.1062C20.9367 49.1297 21.8738 49.1531 22.9529 49.1766C24.0604 49.2001 25.1537 49.2118 26.2328 49.2118C27.4823 49.2118 28.6466 49.2001 29.7257 49.1766C30.8332 49.1531 31.7135 49.1297 32.3667 49.1062V49.8104C31.5148 49.8339 30.8332 49.9161 30.3221 50.0569C29.8393 50.1977 29.5553 50.4677 29.4701 50.8668C29.4133 51.2658 29.5553 51.8996 29.8961 52.7682L35.9448 68.0499L34.9651 69.4935L39.7784 56.8527C40.46 55.0686 40.7866 53.6719 40.7582 52.6625C40.7298 51.6531 40.4032 50.9372 39.7784 50.5146C39.1537 50.0686 38.2592 49.8339 37.0949 49.8104V49.1062C38.0604 49.1297 38.9691 49.1531 39.821 49.1766C40.673 49.2001 41.5249 49.2118 42.3768 49.2118C43.03 49.2118 43.6263 49.2001 44.1659 49.1766C44.7338 49.1531 45.2308 49.1297 45.6567 49.1062ZM15.2429 49.1062V49.8104C14.675 49.8808 14.2774 50.0569 14.0502 50.3386C13.8231 50.5968 13.7237 50.9489 13.7521 51.3949C13.8089 51.8175 13.9367 52.2752 14.1354 52.7682L20.6527 68.402L19.5026 69.6696L24.9549 56.5006L25.5513 57.4513L18.8636 74.1062C18.6365 74.0827 18.3951 74.071 18.1395 74.071C17.8839 74.071 17.6283 74.071 17.3728 74.071C17.1172 74.071 16.8616 74.071 16.606 74.071C16.3505 74.071 16.1091 74.0827 15.8819 74.1062L6.34031 52.0639C5.97114 51.1954 5.53098 50.6085 5.01982 50.3034C4.53706 49.9982 4.0827 49.8339 3.65674 49.8104V49.1062C4.50867 49.1297 5.51678 49.1531 6.68108 49.1766C7.84538 49.2001 8.95288 49.2118 10.0036 49.2118C11.1395 49.2118 12.1476 49.2001 13.0279 49.1766C13.9367 49.1531 14.675 49.1297 15.2429 49.1062Z" fill="#E9762B"/>
<path d="M83.8889 15.0998L74.3829 0.514771H75.6183L85.1587 15.0998H83.8889ZM78.4667 15.0998L68.9607 0.514771H70.1961L79.7021 15.0998H78.4667ZM81.2121 15.0998L71.6718 0.514771H72.9072L82.4133 15.0998H81.2121ZM83.1339 9.71193L82.4819 8.75103L87.9727 0.514771H89.2082L83.1339 9.71193ZM84.5066 11.8396L83.8889 10.8444L90.6838 0.514771H91.9193L84.5066 11.8396ZM85.8793 13.933L85.2273 12.9721L93.3949 0.514771H94.6304L85.8793 13.933ZM83.5457 28.1062V16.3696H84.5753V28.1062H83.5457ZM79.0158 28.1062V16.3696H80.0453V28.1062H79.0158ZM81.2808 28.1062V16.3696H82.3103V28.1062H81.2808Z" fill="#E9762B"/>
<path d="M53.06 28.1062V0.514771H54.0895V28.1062H53.06ZM48.53 28.1062V0.514771H49.5596V28.1062H48.53ZM50.795 28.1062V0.514771H51.8245V28.1062H50.795ZM55.3249 16.5755V15.5459H63.3896C64.6937 15.5459 65.8719 15.26 66.9243 14.688C67.9996 14.116 68.8461 13.3039 69.4639 12.2514C70.1045 11.199 70.4248 9.96359 70.4248 8.54512C70.4248 7.12666 70.1045 5.89122 69.4639 4.83881C68.8461 3.7864 67.9996 2.97421 66.9243 2.40225C65.8719 1.83028 64.6937 1.5443 63.3896 1.5443H55.3249V0.514771H63.3896C64.8767 0.514771 66.2265 0.857948 67.4391 1.5443C68.6745 2.20778 69.6469 3.1458 70.3561 4.35836C71.0882 5.54804 71.4543 6.94363 71.4543 8.54512C71.4543 10.1466 71.0882 11.5536 70.3561 12.7662C69.6469 13.9559 68.6745 14.8939 67.4391 15.5803C66.2265 16.2437 64.8767 16.5755 63.3896 16.5755H55.3249ZM55.3249 14.3105V13.281H63.3896C64.7166 13.281 65.8376 12.8692 66.7528 12.0455C67.6908 11.199 68.1598 10.0322 68.1598 8.54512C68.1598 7.05802 67.6908 5.90266 66.7528 5.07903C65.8376 4.23253 64.7166 3.80928 63.3896 3.80928H55.3249V2.77974H63.3896C64.4649 2.77974 65.4372 3.01997 66.3066 3.50042C67.176 3.95798 67.8738 4.62146 68.4 5.49084C68.9262 6.33735 69.1893 7.35544 69.1893 8.54512C69.1893 9.73481 68.9262 10.7643 68.4 11.6337C67.8738 12.4802 67.176 13.1437 66.3066 13.6242C65.4372 14.0817 64.4649 14.3105 63.3896 14.3105H55.3249ZM55.3249 12.0455V11.016H63.3896C64.076 11.016 64.6594 10.8215 65.1398 10.4326C65.6432 10.0208 65.8948 9.39163 65.8948 8.54512C65.8948 7.67574 65.6432 7.04658 65.1398 6.65765C64.6594 6.26871 64.076 6.07425 63.3896 6.07425H55.3249V5.04471H63.3896C64.3734 5.04471 65.2085 5.34213 65.8948 5.93698C66.5812 6.53182 66.9243 7.4012 66.9243 8.54512C66.9243 9.68905 66.5812 10.5584 65.8948 11.1533C65.2085 11.7481 64.3734 12.0455 63.3896 12.0455H55.3249ZM55.222 28.1062V27.0767H63.5612C65.2313 27.0767 66.6612 26.7564 67.8509 26.1158C69.0635 25.4523 69.9901 24.5601 70.6307 23.439C71.2941 22.2951 71.6259 21.0025 71.6259 19.5611C71.6259 18.6689 71.5115 17.8224 71.2827 17.0216C71.0768 16.198 70.7451 15.4773 70.2875 14.8596C70.4248 14.7452 70.5506 14.6308 70.665 14.5164C70.8023 14.3791 70.9166 14.2304 71.0082 14.0703C72.1063 15.5116 72.6554 17.3419 72.6554 19.5611C72.6554 21.1855 72.2779 22.6497 71.5229 23.9538C70.7908 25.235 69.7384 26.2531 68.3657 27.0081C67.0159 27.7402 65.4144 28.1062 63.5612 28.1062H55.222ZM55.222 25.8413V24.8117H63.5612C65.4601 24.8117 66.9015 24.3199 67.8852 23.3361C68.869 22.3523 69.3609 21.094 69.3609 19.5611C69.3609 18.9663 69.2923 18.3943 69.155 17.8452C69.0177 17.2733 68.8233 16.7699 68.5716 16.3353C68.7546 16.2437 68.9148 16.1408 69.052 16.0264C69.1893 15.912 69.3037 15.809 69.3952 15.7175C69.7155 16.2209 69.9557 16.8043 70.1159 17.4677C70.2989 18.1312 70.3904 18.829 70.3904 19.5611C70.3904 21.3685 69.7956 22.8671 68.6059 24.0568C67.4162 25.2464 65.7347 25.8413 63.5612 25.8413H55.222ZM55.222 23.5763V22.5468H63.5612C64.8195 22.5468 65.7232 22.2722 66.2723 21.7231C66.8214 21.1741 67.0959 20.4534 67.0959 19.5611C67.0959 18.7146 66.8786 17.9825 66.4439 17.3648C66.6041 17.319 66.7642 17.2618 66.9243 17.1932C67.0845 17.1017 67.2446 17.0102 67.4048 16.9187C67.8852 17.6965 68.1255 18.5773 68.1255 19.5611C68.1255 20.7508 67.748 21.7231 66.993 22.4781C66.2609 23.2102 65.1169 23.5763 63.5612 23.5763H55.222Z" fill="#E9762B"/>
<path d="M46.8295 14.3105C46.8295 12.4802 46.5092 10.7643 45.8686 9.16284C45.2509 7.53847 44.3586 6.12 43.1918 4.90744C42.025 3.69488 40.6294 2.74542 39.0051 2.05907C37.3807 1.37271 35.5619 1.02953 33.5485 1.02953C31.5352 1.02953 29.7164 1.37271 28.092 2.05907C26.4676 2.74542 25.0721 3.69488 23.9053 4.90744C22.7384 6.12 21.8347 7.53847 21.1941 9.16284C20.5764 10.7643 20.2676 12.4802 20.2676 14.3105C20.2676 16.1408 20.5764 17.8681 21.1941 19.4925C21.8347 21.094 22.7384 22.501 23.9053 23.7136C25.0721 24.9261 26.4676 25.8756 28.092 26.5619C29.7164 27.2483 31.5352 27.5915 33.5485 27.5915C35.5619 27.5915 37.3807 27.2483 39.0051 26.5619C40.6294 25.8756 42.025 24.9261 43.1918 23.7136C44.3586 22.501 45.2509 21.094 45.8686 19.4925C46.5092 17.8681 46.8295 16.1408 46.8295 14.3105ZM44.5645 14.3105C44.5645 12.2743 44.1184 10.4326 43.2262 8.78535C42.3339 7.11522 41.0641 5.78826 39.4169 4.80449C37.7696 3.82071 35.8135 3.32882 33.5485 3.32882C31.3064 3.32882 29.3503 3.82071 27.6802 4.80449C26.033 5.78826 24.7632 7.11522 23.8709 8.78535C22.9787 10.4326 22.5325 12.2743 22.5325 14.3105C22.5325 16.3238 22.9787 18.1655 23.8709 19.8357C24.7632 21.5058 26.033 22.8328 27.6802 23.8165C29.3503 24.8003 31.3064 25.2922 33.5485 25.2922C35.8135 25.2922 37.7696 24.8003 39.4169 23.8165C41.0641 22.8328 42.3339 21.5058 43.2262 19.8357C44.1184 18.1655 44.5645 16.3238 44.5645 14.3105ZM42.2996 14.3105C42.2996 12.709 41.9564 11.2562 41.27 9.95215C40.5837 8.6252 39.5885 7.57279 38.2844 6.79492C36.9803 5.99417 35.4017 5.5938 33.5485 5.5938C31.7183 5.5938 30.1396 5.99417 28.8127 6.79492C27.5086 7.57279 26.5134 8.6252 25.827 9.95215C25.1407 11.2562 24.7975 12.709 24.7975 14.3105C24.7975 15.912 25.1407 17.3762 25.827 18.7032C26.5134 20.0073 27.5086 21.0597 28.8127 21.8604C30.1396 22.6383 31.7183 23.0272 33.5485 23.0272C35.4017 23.0272 36.9803 22.6383 38.2844 21.8604C39.5885 21.0597 40.5837 20.0073 41.27 18.7032C41.9564 17.3762 42.2996 15.912 42.2996 14.3105ZM33.5485 24.0911C31.5124 24.0911 29.7621 23.6564 28.2979 22.787C26.8337 21.8947 25.7127 20.705 24.9348 19.2179C24.1569 17.7308 23.768 16.095 23.768 14.3105C23.768 12.5031 24.1569 10.8673 24.9348 9.40307C25.7127 7.91596 26.8337 6.73772 28.2979 5.86834C29.7621 4.97608 31.5124 4.52995 33.5485 4.52995C35.5847 4.52995 37.3349 4.97608 38.7992 5.86834C40.2634 6.73772 41.3844 7.91596 42.1623 9.40307C42.9402 10.8673 43.3291 12.5031 43.3291 14.3105C43.3291 16.095 42.9402 17.7308 42.1623 19.2179C41.3844 20.705 40.2634 21.8947 38.7992 22.787C37.3349 23.6564 35.5847 24.0911 33.5485 24.0911ZM33.5485 26.356C31.7183 26.356 30.0596 26.0472 28.5725 25.4295C27.1082 24.7889 25.8385 23.9195 24.7632 22.8213C23.7108 21.7231 22.8986 20.4534 22.3266 19.012C21.7776 17.5478 21.503 15.9806 21.503 14.3105C21.503 12.6404 21.7776 11.0846 22.3266 9.64329C22.8986 8.17907 23.7108 6.89787 24.7632 5.7997C25.8385 4.67865 27.1082 3.80927 28.5725 3.19155C30.0596 2.57383 31.7183 2.26497 33.5485 2.26497C35.3788 2.26497 37.0261 2.57383 38.4903 3.19155C39.9774 3.80927 41.2472 4.67865 42.2996 5.7997C43.3749 6.89787 44.187 8.17907 44.7361 9.64329C45.3081 11.0846 45.5941 12.6404 45.5941 14.3105C45.5941 15.9806 45.3081 17.5478 44.7361 19.012C44.187 20.4534 43.3749 21.7231 42.2996 22.8213C41.2472 23.9195 39.9774 24.7889 38.4903 25.4295C37.0261 26.0472 35.3788 26.356 33.5485 26.356ZM33.5485 28.621C31.398 28.621 29.4418 28.255 27.6802 27.5228C25.9414 26.7679 24.4429 25.7383 23.1846 24.4342C21.9263 23.1302 20.9539 21.6202 20.2676 19.9043C19.5812 18.1655 19.238 16.3009 19.238 14.3105C19.238 12.3201 19.5812 10.4669 20.2676 8.75103C20.9539 7.01226 21.9263 5.49084 23.1846 4.18677C24.4429 2.88269 25.9414 1.8646 27.6802 1.13249C29.4418 0.377496 31.398 0 33.5485 0C35.6991 0 37.6438 0.377496 39.3826 1.13249C41.1442 1.8646 42.6542 2.88269 43.9125 4.18677C45.1708 5.49084 46.1432 7.01226 46.8295 8.75103C47.5159 10.4669 47.859 12.3201 47.859 14.3105C47.859 16.3009 47.5159 18.1655 46.8295 19.9043C46.1432 21.6202 45.1708 23.1302 43.9125 24.4342C42.6542 25.7383 41.1442 26.7679 39.3826 27.5228C37.6438 28.255 35.6991 28.621 33.5485 28.621Z" fill="#E9762B"/>
<path d="M0 1.5443V0.514771H30.1568L27.1568 1.5443H0ZM0 3.80928V2.77974L24.6568 3.10626L23.6568 4.10626L0 3.80928ZM0 6.07425V5.04471H23.1568L22.1568 6.07425H0ZM12.423 28.1062V7.17242H13.4526V28.1062H12.423ZM7.89308 28.1062V7.17242H8.92262V28.1062H7.89308ZM10.1581 28.1062V7.17242H11.1876V28.1062H10.1581Z" fill="#E9762B"/>
</svg>
