<svg width="131" height="128" viewBox="0 0 131 128" fill="none" xmlns="http://www.w3.org/2000/svg">
<path fill-rule="evenodd" clip-rule="evenodd" d="M74.9225 0.56639C82.5067 -1.30236 90.7149 1.47201 94.8923 8.61064C95.9646 10.4449 97.1405 12.5839 98.3854 15.0449C89.6511 14.467 76.6935 13.9208 58.9375 13.9208C48.921 13.9208 40.434 14.0933 33.3672 14.352C46.6555 8.80327 61.1139 3.96464 74.9225 0.56639ZM18.8514 126.302C27.4103 126.894 40.5519 127.483 58.9375 127.483C77.3231 127.483 90.4648 126.894 99.0236 126.302C108.448 125.649 115.883 118.49 116.656 108.988C116.806 107.173 116.949 105.15 117.087 102.919C114.416 102.997 111.334 103.046 107.812 103.046C103 103.046 99.0035 102.954 95.7663 102.824C85.3041 102.405 76.8574 94.392 76.3801 83.6568C76.2651 81.0319 76.1875 77.924 76.1875 74.2958C76.1875 70.6675 76.2651 67.5596 76.3801 64.9348C76.8574 54.1995 85.3041 46.1898 95.7663 45.7671C99.7798 45.6132 103.796 45.5394 107.812 45.5458C111.334 45.5458 114.416 45.5946 117.087 45.6723C116.949 43.4393 116.806 41.4173 116.656 39.606C115.883 30.1013 108.448 22.9425 99.0236 22.2899C90.4648 21.6976 77.3231 21.1083 58.9375 21.1083C40.5519 21.1083 27.4103 21.6976 18.8514 22.2899C9.42713 22.9425 1.99238 30.1013 1.219 39.6031C0.59225 47.3024 0 58.6989 0 74.2958C0 89.8926 0.59225 101.292 1.219 108.988C1.99238 118.49 9.42713 125.649 18.8514 126.302ZM84.9965 83.2744C85.2696 89.3981 89.9904 93.9608 96.1113 94.2051C99.2306 94.3316 103.109 94.4208 107.812 94.4208C112.516 94.4208 116.394 94.3316 119.514 94.2051C125.637 93.9608 130.355 89.3981 130.629 83.2744C130.738 80.7818 130.812 77.8004 130.812 74.2958C130.812 70.7911 130.738 67.8098 130.629 65.3171C130.355 59.1934 125.635 54.6308 119.514 54.3864C115.615 54.2367 111.714 54.1648 107.812 54.1708C103.109 54.1708 99.2306 54.2599 96.1113 54.3864C89.9875 54.6308 85.2696 59.1934 84.9965 65.3171C84.8872 67.8098 84.8125 70.7883 84.8125 74.2958C84.8125 77.8033 84.8872 80.7818 84.9965 83.2744ZM104.938 67.1083C106.081 67.1083 107.178 67.5626 107.987 68.3714C108.796 69.1801 109.25 70.277 109.25 71.4208V77.1708C109.25 78.3145 108.796 79.4114 107.987 80.2202C107.178 81.0289 106.081 81.4833 104.938 81.4833C103.794 81.4833 102.697 81.0289 101.888 80.2202C101.079 79.4114 100.625 78.3145 100.625 77.1708V71.4208C100.625 70.277 101.079 69.1801 101.888 68.3714C102.697 67.5626 103.794 67.1083 104.938 67.1083Z" fill="#E9762B"/>
</svg>
